<svg width="40" height="28" viewBox="0 0 40 28" fill="none" xmlns="http://www.w3.org/2000/svg">
<path d="M20 12C23.42 12 26 9.42 26 6C26 2.58 23.42 0 20 0C16.58 0 14 2.58 14 6C14 9.42 16.58 12 20 12ZM20 4C21.2 4 22 4.8 22 6C22 7.2 21.2 8 20 8C18.8 8 18 7.2 18 6C18 4.8 18.8 4 20 4ZM22 14H18C12.48 14 8 18.48 8 24V25C8 26.66 9.34 28 11 28H29C30.66 28 32 26.66 32 25V24C32 18.48 27.52 14 22 14ZM12 24C12 20.7 14.7 18 18 18H22C25.3 18 28 20.7 28 24H12ZM9 12C9.94 12 10.8 11.76 11.54 11.34C10.7012 10.0045 10.1881 8.49047 10.0422 6.92015C9.8963 5.34983 10.1216 3.7672 10.7 2.3C10.18 2.12 9.6 2 9 2C6.12 2 4 4.12 4 7C4 9.88 6.12 12 9 12ZM8.22 14H7C3.14 14 0 17.14 0 21V23C0 23.56 0.44 24 1 24H4C4 20.08 5.62 16.54 8.22 14ZM31 12C33.88 12 36 9.88 36 7C36 4.12 33.88 2 31 2C30.38 2 29.82 2.12 29.3 2.3C29.8784 3.7672 30.1037 5.34983 29.9578 6.92015C29.8119 8.49047 29.2988 10.0045 28.46 11.34C29.2 11.76 30.04 12 31 12ZM33 14H31.78C33.1164 15.3 34.1784 16.8548 34.9032 18.5724C35.6281 20.2901 36.001 22.1357 36 24H39C39.56 24 40 23.56 40 23V21C40 17.14 36.86 14 33 14Z" fill="#D6FC45"/>
</svg>
