<svg width="40" height="40" viewBox="0 0 40 40" fill="none" xmlns="http://www.w3.org/2000/svg">
<path d="M3.2 14.0005H36.8M3.2 26.0005H36.8M2 20.0005C2 22.3643 2.46558 24.7049 3.37017 26.8888C4.27475 29.0727 5.60062 31.057 7.27208 32.7284C8.94353 34.3999 10.9278 35.7257 13.1117 36.6303C15.2956 37.5349 17.6362 38.0005 20 38.0005C22.3638 38.0005 24.7044 37.5349 26.8883 36.6303C29.0722 35.7257 31.0565 34.3999 32.7279 32.7284C34.3994 31.057 35.7252 29.0727 36.6298 26.8888C37.5344 24.7049 38 22.3643 38 20.0005C38 15.2266 36.1036 10.6482 32.7279 7.27257C29.3523 3.89691 24.7739 2.00049 20 2.00049C15.2261 2.00049 10.6477 3.89691 7.27208 7.27257C3.89642 10.6482 2 15.2266 2 20.0005Z" stroke="#2050FC" stroke-width="4" stroke-linecap="round" stroke-linejoin="round"/>
<path d="M19.0003 2.00049C15.631 7.39971 13.8447 13.6362 13.8447 20.0005C13.8447 26.3648 15.631 32.6013 19.0003 38.0005M21.0003 2.00049C24.3696 7.39971 26.1559 13.6362 26.1559 20.0005C26.1559 26.3648 24.3696 32.6013 21.0003 38.0005" stroke="#2050FC" stroke-width="4" stroke-linecap="round" stroke-linejoin="round"/>
</svg>
