<svg width="40" height="32" viewBox="0 0 40 32" fill="none" xmlns="http://www.w3.org/2000/svg">
<path d="M2 30.001V28.001C2 25.8793 2.84285 23.8444 4.34315 22.3441C5.84344 20.8439 7.87827 20.001 10 20.001H18C20.1217 20.001 22.1566 20.8439 23.6569 22.3441C25.1571 23.8444 26 25.8793 26 28.001V30.001M38 30.001V28.001C38 25.8793 37.1571 23.8444 35.6569 22.3441C34.1566 20.8439 32.1217 20.001 30 20.001M25 2.341C25.9048 2.02219 26.8729 1.925 27.823 2.05756C28.7732 2.19013 29.6777 2.54859 30.4607 3.10288C31.2437 3.65718 31.8823 4.39115 32.3231 5.24323C32.7639 6.09531 32.9939 7.04066 32.9939 8C32.9939 8.95934 32.7639 9.90469 32.3231 10.7568C31.8823 11.6089 31.2437 12.3428 30.4607 12.8971C29.6777 13.4514 28.7732 13.8099 27.823 13.9424C26.8729 14.075 25.9048 13.9778 25 13.659M20 8.001C20 9.5923 19.3679 11.1184 18.2426 12.2436C17.1174 13.3689 15.5913 14.001 14 14.001C12.4087 14.001 10.8826 13.3689 9.75736 12.2436C8.63214 11.1184 8 9.5923 8 8.001C8 6.4097 8.63214 4.88358 9.75736 3.75836C10.8826 2.63314 12.4087 2.001 14 2.001C15.5913 2.001 17.1174 2.63314 18.2426 3.75836C19.3679 4.88358 20 6.4097 20 8.001Z" stroke="#2050FC" stroke-width="4" stroke-linecap="round"/>
</svg>
