<svg width="36" height="44" viewBox="0 0 36 44" fill="none" xmlns="http://www.w3.org/2000/svg">
<path d="M4.28603 26C2.78535 23.5425 1.99414 20.7175 2.00003 17.838C2.00003 9.09 9.16403 2 18 2C26.836 2 34 9.09 34 17.838C34.0059 20.7175 33.2147 23.5425 31.714 26" stroke="#D6FC45" stroke-width="4" stroke-linecap="round"/>
<path d="M23.9998 36L23.7398 37.294C23.4598 38.708 23.3178 39.414 22.9998 39.974C22.5097 40.8371 21.7164 41.4872 20.7738 41.798C20.1638 42 19.4398 42 17.9998 42C16.5598 42 15.8358 42 15.2258 41.8C14.2828 41.4887 13.4894 40.8379 12.9998 39.974C12.6818 39.414 12.5398 38.708 12.2598 37.294L11.9998 36M8.76576 32.196C8.58176 31.644 8.48976 31.366 8.49976 31.142C8.51107 30.9104 8.58925 30.687 8.72484 30.4989C8.86043 30.3108 9.04761 30.166 9.26376 30.082C9.47176 30 9.76376 30 10.3438 30H25.6558C26.2378 30 26.5278 30 26.7358 30.08C26.9522 30.1641 27.1396 30.3092 27.2752 30.4977C27.4108 30.6862 27.4888 30.91 27.4998 31.142C27.5098 31.366 27.4178 31.642 27.2338 32.196C26.8938 33.218 26.7238 33.73 26.4618 34.144C25.9138 35.0092 25.0548 35.6313 24.0618 35.882C23.5858 36 23.0498 36 21.9758 36H14.0238C12.9498 36 12.4118 36 11.9378 35.88C10.9451 35.6298 10.0861 35.0085 9.53776 34.144C9.27576 33.73 9.10576 33.218 8.76576 32.196Z" stroke="#D6FC45" stroke-width="4"/>
<path d="M10.5 17.5L15 22V30M25.5 17.5L21 22V30M10.5 19C10.8978 19 11.2794 18.842 11.5607 18.5607C11.842 18.2794 12 17.8978 12 17.5C12 17.1022 11.842 16.7206 11.5607 16.4393C11.2794 16.158 10.8978 16 10.5 16C10.1022 16 9.72064 16.158 9.43934 16.4393C9.15804 16.7206 9 17.1022 9 17.5C9 17.8978 9.15804 18.2794 9.43934 18.5607C9.72064 18.842 10.1022 19 10.5 19ZM25.5 19C25.1022 19 24.7206 18.842 24.4393 18.5607C24.158 18.2794 24 17.8978 24 17.5C24 17.1022 24.158 16.7206 24.4393 16.4393C24.7206 16.158 25.1022 16 25.5 16C25.8978 16 26.2794 16.158 26.5607 16.4393C26.842 16.7206 27 17.1022 27 17.5C27 17.8978 26.842 18.2794 26.5607 18.5607C26.2794 18.842 25.8978 19 25.5 19Z" stroke="#D6FC45" stroke-width="4" stroke-linecap="round" stroke-linejoin="round"/>
</svg>
