<svg width="40" height="40" viewBox="0 0 40 40" fill="none" xmlns="http://www.w3.org/2000/svg">
<path d="M18 20C18 20.5304 18.2107 21.0391 18.5858 21.4142C18.9609 21.7893 19.4696 22 20 22C20.5304 22 21.0391 21.7893 21.4142 21.4142C21.7893 21.0391 22 20.5304 22 20C22 19.4696 21.7893 18.9609 21.4142 18.5858C21.0391 18.2107 20.5304 18 20 18C19.4696 18 18.9609 18.2107 18.5858 18.5858C18.2107 18.9609 18 19.4696 18 20Z" stroke="#D6FC45" stroke-width="4" stroke-linecap="round" stroke-linejoin="round"/>
<path d="M10 20C10 22.6522 11.0536 25.1957 12.9289 27.0711C14.8043 28.9464 17.3478 30 20 30C22.6522 30 25.1957 28.9464 27.0711 27.0711C28.9464 25.1957 30 22.6522 30 20C30 17.3478 28.9464 14.8043 27.0711 12.9289C25.1957 11.0536 22.6522 10 20 10C17.3478 10 14.8043 11.0536 12.9289 12.9289C11.0536 14.8043 10 17.3478 10 20Z" stroke="#D6FC45" stroke-width="4" stroke-linecap="round" stroke-linejoin="round"/>
<path d="M2 20C2 22.3638 2.46558 24.7044 3.37017 26.8883C4.27475 29.0722 5.60062 31.0565 7.27208 32.7279C8.94353 34.3994 10.9278 35.7252 13.1117 36.6298C15.2956 37.5344 17.6362 38 20 38C22.3638 38 24.7044 37.5344 26.8883 36.6298C29.0722 35.7252 31.0565 34.3994 32.7279 32.7279C34.3994 31.0565 35.7252 29.0722 36.6298 26.8883C37.5344 24.7044 38 22.3638 38 20C38 17.6362 37.5344 15.2956 36.6298 13.1117C35.7252 10.9278 34.3994 8.94353 32.7279 7.27208C31.0565 5.60062 29.0722 4.27475 26.8883 3.37017C24.7044 2.46558 22.3638 2 20 2C17.6362 2 15.2956 2.46558 13.1117 3.37017C10.9278 4.27475 8.94353 5.60062 7.27208 7.27208C5.60062 8.94353 4.27475 10.9278 3.37017 13.1117C2.46558 15.2956 2 17.6362 2 20Z" stroke="#D6FC45" stroke-width="4" stroke-linecap="round" stroke-linejoin="round"/>
</svg>
