<svg width="40" height="40" viewBox="0 0 40 40" fill="none" xmlns="http://www.w3.org/2000/svg">
<path fill-rule="evenodd" clip-rule="evenodd" d="M20 4C15.7565 4 11.6869 5.68571 8.68629 8.68629C5.68571 11.6869 4 15.7565 4 20C4 24.2435 5.68571 28.3131 8.68629 31.3137C11.6869 34.3143 15.7565 36 20 36C24.2435 36 28.3131 34.3143 31.3137 31.3137C34.3143 28.3131 36 24.2435 36 20C36 15.7565 34.3143 11.6869 31.3137 8.68629C28.3131 5.68571 24.2435 4 20 4ZM0 20C0 8.954 8.954 0 20 0C31.046 0 40 8.954 40 20C40 31.046 31.046 40 20 40C8.954 40 0 31.046 0 20ZM13 16C12.61 16 12.112 16.248 11.788 16.896C11.5479 17.366 11.1318 17.722 10.6303 17.8865C10.1289 18.051 9.58274 18.0106 9.11091 17.7742C8.63909 17.5378 8.27985 17.1244 8.11147 16.6243C7.94309 16.1241 7.97922 15.5776 8.212 15.104C9.084 13.36 10.826 12 13 12C15.174 12 16.914 13.36 17.788 15.104C18.0208 15.5776 18.0569 16.1241 17.8885 16.6243C17.7202 17.1244 17.3609 17.5378 16.8891 17.7742C16.4173 18.0106 15.8711 18.051 15.3697 17.8865C14.8682 17.722 14.4521 17.366 14.212 16.896C13.888 16.248 13.392 16 13 16ZM27 16C26.61 16 26.112 16.248 25.788 16.896C25.6716 17.1329 25.5094 17.3444 25.3109 17.5183C25.1123 17.6922 24.8813 17.8251 24.6312 17.9093C24.381 17.9935 24.1167 18.0274 23.8534 18.009C23.5901 17.9905 23.333 17.9202 23.097 17.8019C22.8611 17.6837 22.6508 17.5199 22.4784 17.32C22.3061 17.1201 22.175 16.8881 22.0927 16.6373C22.0104 16.3865 21.9786 16.1219 21.9991 15.8587C22.0196 15.5955 22.0919 15.3391 22.212 15.104C23.086 13.36 24.826 12 27 12C29.174 12 30.914 13.36 31.788 15.104C32.0208 15.5776 32.0569 16.1241 31.8885 16.6243C31.7202 17.1244 31.3609 17.5378 30.8891 17.7742C30.4173 18.0106 29.8711 18.051 29.3697 17.8865C28.8682 17.722 28.4521 17.366 28.212 16.896C27.888 16.248 27.392 16 27 16ZM13.208 24.676C13.3818 24.4789 13.5928 24.318 13.8288 24.2025C14.0648 24.087 14.3213 24.0192 14.5835 24.0028C14.8458 23.9865 15.1087 24.022 15.3572 24.1073C15.6058 24.1926 15.8351 24.326 16.032 24.5C17.092 25.436 18.478 26 20 26C21.522 26 22.91 25.436 23.968 24.5C24.3658 24.1489 24.8868 23.9701 25.4165 24.0031C25.9461 24.0361 26.4409 24.2782 26.792 24.676C27.1431 25.0738 27.3219 25.5948 27.2889 26.1245C27.2559 26.6541 27.0138 27.1489 26.616 27.5C24.7908 29.1146 22.4369 30.0041 20 30C17.5631 30.0041 15.2092 29.1146 13.384 27.5C13.1869 27.3262 13.026 27.1152 12.9105 26.8792C12.795 26.6432 12.7272 26.3867 12.7108 26.1245C12.6945 25.8622 12.73 25.5993 12.8153 25.3508C12.9006 25.1022 13.034 24.8729 13.208 24.676Z" fill="#2050FC"/>
</svg>
