<svg width="48" height="48" viewBox="0 0 48 48" fill="none" xmlns="http://www.w3.org/2000/svg">
<path d="M32 6H2V32H32V6Z" stroke="#7546FF" stroke-width="4" stroke-linecap="round" stroke-linejoin="round"/>
<path d="M32 16H40L46 22V32H32V16Z" stroke="#7546FF" stroke-width="4" stroke-linecap="round" stroke-linejoin="round"/>
<path d="M11 42C13.7614 42 16 39.7614 16 37C16 34.2386 13.7614 32 11 32C8.23858 32 6 34.2386 6 37C6 39.7614 8.23858 42 11 42Z" stroke="#7546FF" stroke-width="4" stroke-linecap="round" stroke-linejoin="round"/>
<path d="M37 42C39.7614 42 42 39.7614 42 37C42 34.2386 39.7614 32 37 32C34.2386 32 32 34.2386 32 37C32 39.7614 34.2386 42 37 42Z" stroke="#7546FF" stroke-width="4" stroke-linecap="round" stroke-linejoin="round"/>
</svg>
